<svg width="99" height="99" viewBox="0 0 99 99" fill="none" xmlns="http://www.w3.org/2000/svg">
<circle cx="49.5" cy="49.5" r="49.5" fill="#FFF7E9"/>
<path d="M8.5445 29.3134C13.9229 18.3601 23.2449 10.1569 34.7931 6.21461C46.3414 2.27277 58.7336 3.06371 69.6869 8.4421C80.6402 13.8205 88.8434 23.1425 92.7858 34.6907C96.7276 46.239 95.9366 58.6312 90.5583 69.5845C88.8231 73.1181 86.6453 76.41 84.0853 79.3684C83.5916 79.9391 82.8798 80.2748 82.1254 80.2929C81.371 80.3111 80.644 80.0098 80.1234 79.4635C79.6738 78.9916 79.1459 78.6052 78.5543 78.3147C75.8136 76.9689 72.4887 78.1039 71.1429 80.8446C71.0286 81.0775 70.9281 81.3258 70.8447 81.5827C70.6034 82.3244 70.0522 82.9227 69.3339 83.2239C68.6156 83.5251 67.8017 83.4984 67.1044 83.1508C67.0748 83.1361 67.0461 83.121 67.0174 83.1057C64.2816 81.7802 60.9741 82.9167 59.6326 85.6487C59.5183 85.8816 59.4178 86.1299 59.3344 86.3867C59.0928 87.1287 58.5418 87.7269 57.8236 88.0279C57.1053 88.3291 56.2914 88.3024 55.5941 87.9548C55.5647 87.9402 55.5361 87.9252 55.5074 87.9099C52.7717 86.5843 49.4639 87.7206 48.1223 90.4527C47.816 91.0766 47.6319 91.7435 47.5747 92.4349C47.5152 93.1544 47.1679 93.8192 46.611 94.2788C46.0543 94.7384 45.3358 94.9535 44.6181 94.8757C39.3363 94.3028 34.2217 92.8157 29.4158 90.4559C18.4625 85.0775 10.2593 75.7555 6.31701 64.2073C2.37517 52.659 3.16611 40.2668 8.5445 29.3134Z" fill="#774E2E"/>
<path d="M8.68693 44.0083C8.39009 43.7878 8.24167 43.5249 8.24167 43.2196C8.24167 43.1008 8.26288 42.9863 8.30528 42.8761C8.34769 42.7573 8.42402 42.6386 8.53427 42.5199L8.90319 42.1001C9.1237 41.8287 9.38237 41.693 9.67921 41.693C9.78098 41.693 9.89123 41.7142 10.01 41.7566C10.1202 41.7905 10.2347 41.8541 10.3535 41.9474C11.5408 42.8379 12.6815 43.7623 13.7755 44.7207C14.8781 45.6706 15.9425 46.7095 16.9687 47.8375C17.1298 47.9901 17.2697 48.0665 17.3885 48.0665C17.6175 48.0665 17.7574 47.9138 17.8083 47.6085L18.9278 43.1432C19.055 42.6429 19.3137 42.3927 19.7038 42.3927C19.7886 42.3927 19.8777 42.4054 19.9709 42.4308C20.0727 42.4563 20.1745 42.5029 20.2763 42.5708L20.7215 42.8125C21.1371 43.0415 21.3449 43.351 21.3449 43.7411C21.3449 43.8684 21.3194 44.0083 21.2685 44.161C20.9802 45.2211 20.6876 46.3406 20.3908 47.5194C20.1024 48.6898 19.8056 49.8941 19.5002 51.1324C19.1949 52.3621 18.8811 53.6088 18.5589 54.8725C18.2366 56.1362 17.9058 57.3871 17.5666 58.6254C17.4309 59.1427 17.1383 59.4014 16.6888 59.4014C16.5616 59.4014 16.4216 59.3759 16.269 59.3251L15.8492 59.1978C15.5863 59.13 15.3954 59.0197 15.2767 58.8671C15.158 58.7144 15.0986 58.5278 15.0986 58.3073C15.0986 58.2564 15.0986 58.1971 15.0986 58.1292C15.1071 58.0614 15.124 57.9935 15.1495 57.9257C15.4209 56.9164 15.688 55.9157 15.9509 54.9234C16.2138 53.9311 16.4683 52.9346 16.7142 51.9338C16.7312 51.8745 16.7439 51.8236 16.7524 51.7812C16.7609 51.7388 16.7651 51.6921 16.7651 51.6412C16.7651 51.5395 16.7397 51.4419 16.6888 51.3486C16.6464 51.2553 16.587 51.1621 16.5107 51.0688C15.3149 49.7457 14.0639 48.5032 12.7578 47.3413C11.4602 46.1794 10.1033 45.0684 8.68693 44.0083ZM24.3146 44.4281C24.3655 44.1313 24.5097 43.9108 24.7471 43.7666C24.9846 43.6139 25.379 43.5376 25.9302 43.5376C26.2271 43.5376 26.4561 43.6139 26.6172 43.7666C26.7868 43.9192 26.8716 44.1313 26.8716 44.4027C26.8716 44.4451 26.8674 44.4832 26.8589 44.5172C26.8504 44.5511 26.8462 44.5892 26.8462 44.6317C26.7529 45.1829 26.6766 45.7554 26.6172 46.3491C26.5578 46.9427 26.5281 47.5449 26.5281 48.1555C26.5281 48.9443 26.596 49.6906 26.7317 50.3945C26.8759 51.09 27.1261 51.7006 27.4823 52.2264C27.8469 52.7438 28.3388 53.1551 28.958 53.4604C29.5856 53.7572 30.3828 53.9057 31.3496 53.9057C31.8924 53.9057 32.3716 53.8081 32.7872 53.6131C33.2027 53.418 33.5462 53.1509 33.8176 52.8116C34.0975 52.4639 34.3053 52.0568 34.441 51.5903C34.5851 51.1239 34.6572 50.6193 34.6572 50.0765C34.6572 49.5337 34.5979 48.9994 34.4791 48.4736C34.3689 47.9477 34.2162 47.4304 34.0211 46.9215C33.8346 46.4042 33.6141 45.8953 33.3596 45.3949C33.1137 44.8946 32.8508 44.3899 32.5709 43.8811C32.4521 43.6521 32.3928 43.4443 32.3928 43.2577C32.3928 42.927 32.5666 42.6471 32.9144 42.4181L33.436 42.0746C33.6649 41.922 33.8812 41.8456 34.0847 41.8456C34.3985 41.8456 34.6615 42.0365 34.8735 42.4181C35.1958 42.9863 35.5053 43.563 35.8022 44.1482C36.099 44.7249 36.3577 45.3186 36.5782 45.9293C36.8072 46.5399 36.9853 47.1717 37.1125 47.8248C37.2482 48.4693 37.316 49.1351 37.316 49.822C37.316 50.7804 37.1549 51.654 36.8326 52.4427C36.5188 53.2314 36.0693 53.9099 35.4841 54.4781C34.8989 55.0379 34.195 55.4704 33.3723 55.7757C32.5582 56.0895 31.6507 56.2464 30.6499 56.2464C29.5644 56.2464 28.5975 56.0556 27.7494 55.674C26.9098 55.3008 26.2016 54.7835 25.6249 54.1219C25.0482 53.4519 24.6114 52.6632 24.3146 51.7557C24.0178 50.8398 23.8693 49.8475 23.8693 48.7789C23.8693 48.0325 23.9117 47.2862 23.9966 46.5399C24.0898 45.7851 24.1959 45.0811 24.3146 44.4281ZM52.3331 47.9647C52.2313 47.9647 52.1422 48.0453 52.0659 48.2064C51.7436 48.834 51.4001 49.4022 51.0355 49.9111C50.6793 50.42 50.3188 50.8525 49.9541 51.2087C49.5894 51.5649 49.229 51.8405 48.8728 52.0356C48.5166 52.2222 48.1816 52.3155 47.8678 52.3155C47.5625 52.3155 47.2784 52.2519 47.0154 52.1247C46.761 51.989 46.4811 51.7388 46.1758 51.3741C45.879 51.0094 45.5355 50.5048 45.1454 49.8602C44.7637 49.2157 44.293 48.376 43.7333 47.3413C43.64 47.1717 43.5425 47.0487 43.4407 46.9724C43.3474 46.8876 43.2626 46.8452 43.1863 46.8452C43.076 46.8452 42.9742 46.9639 42.8809 47.2014C42.7877 47.4304 42.7071 47.7569 42.6392 48.181C42.5714 48.5965 42.5163 49.1012 42.4739 49.6948C42.4399 50.28 42.423 50.9288 42.423 51.6412C42.423 52.0653 42.4442 52.4893 42.4866 52.9134C42.5375 53.3374 42.5629 53.7742 42.5629 54.2237C42.5629 54.3764 42.5205 54.5205 42.4357 54.6562C42.3509 54.7835 42.2364 54.8937 42.0922 54.987C41.9565 55.0888 41.7911 55.1693 41.5961 55.2287C41.4095 55.2881 41.2102 55.3178 40.9982 55.3178C40.5741 55.3178 40.2688 55.0633 40.0822 54.5545C39.8956 54.0456 39.8023 53.2314 39.8023 52.1119C39.8023 50.6956 39.8787 49.4107 40.0313 48.2573C40.1925 47.0954 40.4172 46.1031 40.7056 45.2805C41.0024 44.4493 41.3501 43.809 41.7487 43.3595C42.1558 42.9015 42.6095 42.6725 43.1099 42.6725C43.5509 42.6725 43.9708 42.927 44.3694 43.4358C44.7765 43.9362 45.2132 44.7504 45.6797 45.8784C45.8663 46.3363 46.0656 46.7646 46.2776 47.1632C46.4981 47.5619 46.7144 47.9096 46.9264 48.2064C47.1469 48.4948 47.3589 48.7238 47.5625 48.8934C47.766 49.0545 47.9484 49.1351 48.1095 49.1351C48.2706 49.1351 48.4233 49.1012 48.5675 49.0333C48.7201 48.957 48.8898 48.8001 49.0763 48.5626C49.2714 48.3167 49.4962 47.9605 49.7506 47.494C50.0135 47.0275 50.3358 46.4042 50.7174 45.6239C50.921 45.2168 51.1033 44.8776 51.2644 44.6062C51.4256 44.3348 51.5867 44.1186 51.7479 43.9574C51.909 43.7878 52.0786 43.6691 52.2567 43.6012C52.4348 43.5249 52.6341 43.4867 52.8546 43.4867C53.1176 43.4867 53.3762 43.6267 53.6307 43.9065C53.8851 44.1864 54.131 44.5596 54.3685 45.026C54.6145 45.4925 54.8519 46.0353 55.0809 46.6544C55.3099 47.2735 55.5304 47.9223 55.7424 48.6008C55.9629 49.2793 56.175 49.9705 56.3785 50.6744C56.5905 51.3698 56.7941 52.0314 56.9891 52.659C57.04 52.8455 57.074 52.977 57.0909 53.0533C57.1164 53.1212 57.1291 53.206 57.1291 53.3078C57.1291 53.4519 57.0824 53.5961 56.9891 53.7403C56.9043 53.876 56.7898 53.999 56.6457 54.1092C56.5015 54.2195 56.3361 54.3085 56.1495 54.3764C55.9714 54.4442 55.7933 54.4781 55.6152 54.4781C55.3777 54.4781 55.1912 54.4527 55.0555 54.4018C54.9283 54.3424 54.8265 54.2407 54.7502 54.0965C54.7077 54.0202 54.6357 53.8166 54.5339 53.4859C54.4321 53.1551 54.3091 52.765 54.165 52.3155C54.0293 51.8575 53.8766 51.3741 53.707 50.8652C53.5458 50.3564 53.3805 49.8899 53.2108 49.4658C53.0497 49.0333 52.8928 48.6771 52.7401 48.3972C52.5875 48.1089 52.4518 47.9647 52.3331 47.9647ZM71.2047 47.9647C71.1029 47.9647 71.0139 48.0453 70.9376 48.2064C70.6153 48.834 70.2718 49.4022 69.9071 49.9111C69.5509 50.42 69.1905 50.8525 68.8258 51.2087C68.4611 51.5649 68.1007 51.8405 67.7445 52.0356C67.3883 52.2222 67.0533 52.3155 66.7395 52.3155C66.4341 52.3155 66.15 52.2519 65.8871 52.1247C65.6327 51.989 65.3528 51.7388 65.0475 51.3741C64.7507 51.0094 64.4072 50.5048 64.017 49.8602C63.6354 49.2157 63.1647 48.376 62.6049 47.3413C62.5117 47.1717 62.4141 47.0487 62.3124 46.9724C62.2191 46.8876 62.1343 46.8452 62.0579 46.8452C61.9477 46.8452 61.8459 46.9639 61.7526 47.2014C61.6593 47.4304 61.5787 47.7569 61.5109 48.181C61.443 48.5965 61.3879 49.1012 61.3455 49.6948C61.3116 50.28 61.2946 50.9288 61.2946 51.6412C61.2946 52.0653 61.3158 52.4893 61.3582 52.9134C61.4091 53.3374 61.4346 53.7742 61.4346 54.2237C61.4346 54.3764 61.3922 54.5205 61.3073 54.6562C61.2225 54.7835 61.108 54.8937 60.9639 54.987C60.8282 55.0888 60.6628 55.1693 60.4677 55.2287C60.2811 55.2881 60.0818 55.3178 59.8698 55.3178C59.4458 55.3178 59.1404 55.0633 58.9539 54.5545C58.7673 54.0456 58.674 53.2314 58.674 52.1119C58.674 50.6956 58.7503 49.4107 58.903 48.2573C59.0641 47.0954 59.2889 46.1031 59.5772 45.2805C59.8741 44.4493 60.2218 43.809 60.6204 43.3595C61.0275 42.9015 61.4812 42.6725 61.9816 42.6725C62.4226 42.6725 62.8424 42.927 63.241 43.4358C63.6481 43.9362 64.0849 44.7504 64.5513 45.8784C64.7379 46.3363 64.9372 46.7646 65.1493 47.1632C65.3698 47.5619 65.586 47.9096 65.7981 48.2064C66.0186 48.4948 66.2306 48.7238 66.4341 48.8934C66.6377 49.0545 66.82 49.1351 66.9812 49.1351C67.1423 49.1351 67.295 49.1012 67.4391 49.0333C67.5918 48.957 67.7614 48.8001 67.948 48.5626C68.1431 48.3167 68.3678 47.9605 68.6222 47.494C68.8852 47.0275 69.2074 46.4042 69.5891 45.6239C69.7926 45.2168 69.975 44.8776 70.1361 44.6062C70.2972 44.3348 70.4584 44.1186 70.6195 43.9574C70.7807 43.7878 70.9503 43.6691 71.1284 43.6012C71.3065 43.5249 71.5058 43.4867 71.7263 43.4867C71.9892 43.4867 72.2479 43.6267 72.5023 43.9065C72.7567 44.1864 73.0027 44.5596 73.2402 45.026C73.4861 45.4925 73.7236 46.0353 73.9526 46.6544C74.1816 47.2735 74.4021 47.9223 74.6141 48.6008C74.8346 49.2793 75.0466 49.9705 75.2502 50.6744C75.4622 51.3698 75.6657 52.0314 75.8608 52.659C75.9117 52.8455 75.9456 52.977 75.9626 53.0533C75.988 53.1212 76.0007 53.206 76.0007 53.3078C76.0007 53.4519 75.9541 53.5961 75.8608 53.7403C75.776 53.876 75.6615 53.999 75.5173 54.1092C75.3731 54.2195 75.2078 54.3085 75.0212 54.3764C74.8431 54.4442 74.665 54.4781 74.4869 54.4781C74.2494 54.4781 74.0628 54.4527 73.9271 54.4018C73.7999 54.3424 73.6981 54.2407 73.6218 54.0965C73.5794 54.0202 73.5073 53.8166 73.4055 53.4859C73.3038 53.1551 73.1808 52.765 73.0366 52.3155C72.9009 51.8575 72.7483 51.3741 72.5786 50.8652C72.4175 50.3564 72.2521 49.8899 72.0825 49.4658C71.9214 49.0333 71.7645 48.6771 71.6118 48.3972C71.4592 48.1089 71.3235 47.9647 71.2047 47.9647ZM75.1158 44.0083C74.819 43.7878 74.6706 43.5249 74.6706 43.2196C74.6706 43.1008 74.6918 42.9863 74.7342 42.8761C74.7766 42.7573 74.8529 42.6386 74.9632 42.5199L75.3321 42.1001C75.5526 41.8287 75.8113 41.693 76.1081 41.693C76.2099 41.693 76.3201 41.7142 76.4389 41.7566C76.5491 41.7905 76.6636 41.8541 76.7824 41.9474C77.9697 42.8379 79.1104 43.7623 80.2045 44.7207C81.307 45.6706 82.3714 46.7095 83.3976 47.8375C83.5587 47.9901 83.6986 48.0665 83.8174 48.0665C84.0464 48.0665 84.1863 47.9138 84.2372 47.6085L85.3567 43.1432C85.4839 42.6429 85.7426 42.3927 86.1327 42.3927C86.2175 42.3927 86.3066 42.4054 86.3999 42.4308C86.5016 42.4563 86.6034 42.5029 86.7052 42.5708L87.1504 42.8125C87.566 43.0415 87.7738 43.351 87.7738 43.7411C87.7738 43.8684 87.7483 44.0083 87.6975 44.161C87.4091 45.2211 87.1165 46.3406 86.8197 47.5194C86.5313 48.6898 86.2345 49.8941 85.9292 51.1324C85.6238 52.3621 85.31 53.6088 84.9878 54.8725C84.6655 56.1362 84.3347 57.3871 83.9955 58.6254C83.8598 59.1427 83.5672 59.4014 83.1177 59.4014C82.9905 59.4014 82.8505 59.3759 82.6979 59.3251L82.2781 59.1978C82.0152 59.13 81.8243 59.0197 81.7056 58.8671C81.5869 58.7144 81.5275 58.5278 81.5275 58.3073C81.5275 58.2564 81.5275 58.1971 81.5275 58.1292C81.536 58.0614 81.5529 57.9935 81.5784 57.9257C81.8498 56.9164 82.1169 55.9157 82.3798 54.9234C82.6428 53.9311 82.8972 52.9346 83.1431 51.9338C83.1601 51.8745 83.1728 51.8236 83.1813 51.7812C83.1898 51.7388 83.194 51.6921 83.194 51.6412C83.194 51.5395 83.1686 51.4419 83.1177 51.3486C83.0753 51.2553 83.0159 51.1621 82.9396 51.0688C81.7438 49.7457 80.4928 48.5032 79.1867 47.3413C77.8891 46.1794 76.5322 45.0684 75.1158 44.0083Z" fill="#FFF6E7"/>
<path d="M79.4797 22.5761C79.2553 21.6752 77.6093 20.9996 76.5619 21.45C75.0656 22.0506 74.3922 22.5761 74.916 24.3028C75.0656 24.9034 75.8137 26.2547 76.1878 26.3297C76.7115 26.5549 77.9834 26.63 78.3575 26.2547C79.4797 25.2036 79.6294 23.2518 79.4797 22.5761Z" fill="#DDA85F"/>
<path d="M76.3093 25.1713C76.4475 25.6321 78.7157 24.8176 78.4457 23.9999C77.9212 22.6242 77.9087 22.4164 77.472 22.4949C76.6599 22.7524 76.2324 24.8111 76.3093 25.1713Z" fill="#F2CB7D"/>
<path d="M25.842 28.9106C25.6176 28.0097 23.9716 27.3341 22.9242 27.7845C21.4279 28.3851 20.7545 28.9106 21.2782 30.6372C21.4279 31.2378 22.176 32.5891 22.5501 32.6642C23.0738 32.8894 24.3457 32.9645 24.7198 32.5891C25.842 31.5381 25.9917 29.5862 25.842 28.9106Z" fill="#DDA85F"/>
<path d="M22.6714 31.5053C22.8096 31.9661 25.0778 31.1516 24.8078 30.3339C24.2833 28.9581 24.2708 28.7504 23.8341 28.8289C23.022 29.0864 22.5945 31.145 22.6714 31.5053Z" fill="#F2CB7D"/>
<path d="M79.8779 69.9702C79.7459 69.4402 78.7776 69.0428 78.1615 69.3077C77.2812 69.661 76.8851 69.9702 77.1932 70.9859C77.2812 71.3392 77.7214 72.1341 77.9414 72.1782C78.2495 72.3107 78.9977 72.3549 79.2177 72.1341C79.8779 71.5158 79.9659 70.3676 79.8779 69.9702Z" fill="#DDA85F"/>
<path d="M78.0127 71.496C78.094 71.7671 79.4283 71.2879 79.2694 70.8069C78.9609 69.9977 78.9535 69.8755 78.6967 69.9216C78.2189 70.0731 77.9674 71.2841 78.0127 71.496Z" fill="#F2CB7D"/>
<path d="M37.5021 12.4859C36.2319 12.8035 35.2792 15.1322 35.9143 16.6142C36.7611 18.7313 38.7724 19.0488 40.9953 17.8845C42.9007 16.9318 43.0065 13.5444 42.4773 12.9093C40.8894 11.3215 38.4548 12.2742 37.5021 12.4859Z" fill="#DDA85F"/>
<path d="M37.4374 13.8564C36.8023 14.5973 36.273 17.5613 37.8608 17.1378C40.7189 16.291 42.7301 13.4329 41.4599 13.0095C39.8721 12.4802 38.1784 13.0095 37.4374 13.8564Z" fill="#F2CB7D"/>
<path d="M50.9336 70.0044C49.9197 70.2579 49.1593 72.1167 49.6662 73.2996C50.3422 74.9894 51.9475 75.2429 53.7218 74.3135C55.2427 73.5531 55.3272 70.8494 54.9047 70.3424C53.6373 69.075 51.694 69.8355 50.9336 70.0044Z" fill="#DDA85F"/>
<path d="M50.8822 71.0978C50.3752 71.6892 49.9528 74.0549 51.2201 73.717C53.5014 73.0411 55.1067 70.7598 54.0928 70.4218C52.8255 69.9994 51.4736 70.4218 50.8822 71.0978Z" fill="#F2CB7D"/>
<path d="M60.9147 31.3324C60.6595 30.3079 58.7876 29.5395 57.5964 30.0517C55.8947 30.7347 55.1289 31.3324 55.7245 33.296C55.8947 33.979 56.7456 35.5158 57.171 35.6012C57.7666 35.8573 59.213 35.9427 59.6384 35.5158C60.9147 34.3205 61.0849 32.1007 60.9147 31.3324Z" fill="#DDA85F"/>
<path d="M58.6906 35.1235C59.4249 35.4072 60.4883 31.807 59.1619 31.3342C56.8644 30.6252 56.5801 30.4359 56.2726 31.0518C55.8471 32.3072 58.1457 34.8633 58.6906 35.1235Z" fill="#F2CB7D"/>
<path d="M28.7319 65.252C28.4766 64.2275 26.6047 63.4591 25.4136 63.9714C23.7119 64.6544 22.9461 65.252 23.5417 67.2157C23.7119 67.8987 24.5627 69.4355 24.9881 69.5208C25.5837 69.777 27.0302 69.8623 27.4556 69.4355C28.7319 68.2402 28.902 66.0204 28.7319 65.252Z" fill="#DDA85F"/>
<path d="M26.5074 69.0427C27.2417 69.3264 28.3052 65.7262 26.9787 65.2534C24.6812 64.5444 24.3969 64.3551 24.0894 64.971C23.6639 66.2264 25.9626 68.7825 26.5074 69.0427Z" fill="#F2CB7D"/>
<path d="M35.6962 81.5752C35.4986 80.7848 34.0495 80.192 33.1274 80.5872C31.8101 81.1141 31.2173 81.5752 31.6783 83.0901C31.8101 83.617 32.4687 84.8026 32.7981 84.8685C33.2591 85.0661 34.3788 85.1319 34.7082 84.8026C35.6962 83.8805 35.8279 82.168 35.6962 81.5752Z" fill="#DDA85F"/>
<path d="M34.5768 80.9824C34.445 80.3896 31.6787 81.2459 31.9421 82.2997C32.4691 84.0781 32.4691 84.3416 32.996 84.2757C33.984 84.0122 34.6426 81.4435 34.5768 80.9824Z" fill="#F2CB7D"/>
</svg>
